<svg aria-hidden="true" style="position: absolute; width: 0; height: 0; overflow: hidden;" version="1.1" xmlns="http://www.w3.org/2000/svg" xmlns:xlink="http://www.w3.org/1999/xlink">
<defs>
<symbol id="facebook" viewBox="0 0 32 32">
<title>facebook</title>
<path d="M11.761 6.197c0 0.806 0 4.406 0 4.406h-3.228v5.387h3.228v16.009h6.631v-16.009h4.449c0 0 0.417-2.583 0.619-5.408-0.579 0-5.043 0-5.043 0s0-3.134 0-3.684c0-0.551 0.723-1.291 1.437-1.291 0.713 0 2.218 0 3.613 0 0-0.734 0-3.268 0-5.609-1.861 0-3.979 0-4.912 0-6.958-0-6.794 5.392-6.794 6.197z"></path>
</symbol>
<symbol id="inst" viewBox="0 0 32 32">
<title>inst</title>
<path d="M28.8 0h-25.6c-1.76 0-3.2 1.44-3.2 3.2v25.6c0 1.76 1.44 3.2 3.2 3.2h25.6c1.76 0 3.2-1.44 3.2-3.2v-25.6c0-1.76-1.44-3.2-3.2-3.2zM16 9.6c3.52 0 6.4 2.88 6.4 6.4s-2.88 6.4-6.4 6.4c-3.52 0-6.4-2.88-6.4-6.4s2.88-6.4 6.4-6.4zM4 28.8c-0.48 0-0.8-0.32-0.8-0.8v-13.6h3.36c-0.16 0.48-0.16 1.12-0.16 1.6 0 5.28 4.32 9.6 9.6 9.6s9.6-4.32 9.6-9.6c0-0.48 0-1.12-0.16-1.6h3.36v13.6c0 0.48-0.32 0.8-0.8 0.8h-24zM28.8 7.2c0 0.48-0.32 0.8-0.8 0.8h-3.2c-0.48 0-0.8-0.32-0.8-0.8v-3.2c0-0.48 0.32-0.8 0.8-0.8h3.2c0.48 0 0.8 0.32 0.8 0.8v3.2z"></path>
</symbol>
<symbol id="pint" viewBox="0 0 32 32">
<title>pint</title>
<path d="M25.314 3.279c-2.203-2.115-5.251-3.279-8.583-3.279-5.090 0-8.221 2.087-9.951 3.837-2.132 2.157-3.355 5.021-3.355 7.858 0 3.562 1.49 6.296 3.985 7.313 0.168 0.069 0.336 0.103 0.501 0.103 0.526 0 0.943-0.344 1.088-0.897 0.084-0.317 0.279-1.099 0.364-1.438 0.182-0.67 0.035-0.993-0.361-1.46-0.722-0.854-1.058-1.864-1.058-3.178 0-3.903 2.906-8.051 8.293-8.051 4.274 0 6.929 2.429 6.929 6.34 0 2.468-0.532 4.753-1.497 6.435-0.671 1.169-1.851 2.562-3.662 2.562-0.783 0-1.487-0.322-1.931-0.883-0.419-0.53-0.558-1.215-0.389-1.929 0.191-0.806 0.45-1.648 0.702-2.461 0.459-1.485 0.892-2.888 0.892-4.008 0-1.915-1.177-3.201-2.929-3.201-2.226 0-3.97 2.261-3.97 5.147 0 1.415 0.376 2.474 0.546 2.881-0.28 1.188-1.947 8.252-2.263 9.584-0.183 0.778-1.284 6.919 0.539 7.409 2.048 0.55 3.878-5.431 4.064-6.107 0.151-0.55 0.679-2.628 1.003-3.906 0.989 0.952 2.58 1.596 4.129 1.596 2.92 0 5.545-1.314 7.394-3.699 1.792-2.314 2.78-5.539 2.78-9.080 0-2.769-1.189-5.498-3.262-7.488z"></path>
</symbol>
<symbol id="search" viewBox="0 0 32 32">
<title>search</title>
<path d="M31.217 27.435l-6.952-6.952c-0.037-0.037-0.080-0.063-0.119-0.097 1.368-2.075 2.166-4.559 2.166-7.23 0-7.266-5.89-13.156-13.156-13.156s-13.156 5.89-13.156 13.156c0 7.266 5.89 13.156 13.156 13.156 2.671 0 5.155-0.798 7.23-2.166 0.034 0.038 0.060 0.082 0.097 0.119l6.952 6.952c1.044 1.044 2.737 1.044 3.782 0s1.044-2.737 0-3.782zM13.156 21.751c-4.747 0-8.595-3.848-8.595-8.595s3.848-8.595 8.595-8.595c4.747 0 8.595 3.848 8.595 8.595s-3.848 8.595-8.595 8.595z"></path>
</symbol>
<symbol id="shop" viewBox="0 0 32 32">
<title>shop</title>
<path d="M9.606 21.070h17.632c1.999 0 3.63-1.631 3.63-3.63v-7.418c0-0.007 0-0.020 0-0.026 0-0.020 0-0.033 0-0.053 0-0.013 0-0.026-0.007-0.039 0-0.013-0.007-0.033-0.007-0.046s-0.007-0.026-0.007-0.039c-0.007-0.013-0.007-0.026-0.013-0.046-0.007-0.013-0.007-0.026-0.013-0.039s-0.007-0.026-0.013-0.039c-0.007-0.013-0.013-0.026-0.020-0.046-0.007-0.013-0.013-0.026-0.020-0.033-0.007-0.013-0.013-0.026-0.020-0.039s-0.013-0.020-0.020-0.033c-0.007-0.013-0.020-0.026-0.026-0.039s-0.013-0.020-0.026-0.033c-0.007-0.013-0.020-0.020-0.026-0.033s-0.020-0.020-0.026-0.033-0.020-0.020-0.026-0.026c-0.013-0.013-0.020-0.020-0.033-0.033-0.013-0.007-0.020-0.020-0.033-0.026s-0.026-0.020-0.039-0.026c-0.013-0.007-0.020-0.013-0.033-0.020s-0.026-0.013-0.039-0.026c-0.013-0.007-0.026-0.013-0.039-0.020s-0.026-0.013-0.039-0.020-0.026-0.013-0.039-0.020-0.026-0.007-0.039-0.013c-0.013-0.007-0.033-0.013-0.046-0.013s-0.026-0.007-0.033-0.007-0.033-0.007-0.053-0.007c-0.007 0-0.013-0.007-0.026-0.007l-22.348-3.084v-3.117c0-0.033 0-0.066-0.007-0.092 0-0.007 0-0.013-0.007-0.026 0-0.020-0.007-0.039-0.007-0.059-0.007-0.020-0.007-0.033-0.013-0.053 0-0.013-0.007-0.020-0.007-0.033-0.007-0.020-0.013-0.039-0.020-0.059 0-0.007-0.007-0.020-0.007-0.026-0.007-0.020-0.013-0.033-0.026-0.053-0.007-0.007-0.007-0.020-0.013-0.026-0.007-0.013-0.013-0.026-0.026-0.039-0.007-0.013-0.013-0.020-0.020-0.033s-0.013-0.020-0.020-0.033-0.020-0.026-0.026-0.039c-0.007-0.007-0.013-0.013-0.020-0.020-0.013-0.013-0.026-0.026-0.039-0.039-0.007-0.007-0.013-0.013-0.020-0.020-0.013-0.013-0.026-0.026-0.046-0.039-0.007-0.007-0.020-0.013-0.026-0.020-0.013-0.013-0.026-0.020-0.039-0.033-0.020-0.013-0.039-0.026-0.053-0.033-0.007-0.007-0.013-0.007-0.020-0.013-0.026-0.013-0.059-0.026-0.085-0.039l-4.847-2.039c-0.454-0.191-0.973 0.020-1.164 0.474s0.020 0.973 0.474 1.164l4.301 1.815v19.454c0 1.841 1.381 3.367 3.163 3.597-0.322 0.539-0.513 1.171-0.513 1.841 0 1.98 1.611 3.584 3.584 3.584s3.584-1.611 3.584-3.584c0-0.658-0.178-1.282-0.493-1.809h7.984c-0.316 0.533-0.493 1.151-0.493 1.809 0 1.98 1.611 3.584 3.584 3.584s3.584-1.611 3.584-3.584-1.611-3.584-3.584-3.584h-16.77c-1.026 0-1.855-0.835-1.855-1.855v-2.407c0.539 0.316 1.177 0.5 1.855 0.5zM14.026 28.409c0 1-0.816 1.809-1.809 1.809s-1.809-0.816-1.809-1.809 0.816-1.809 1.809-1.809 1.809 0.809 1.809 1.809zM28.192 28.409c0 1-0.816 1.809-1.809 1.809s-1.809-0.816-1.809-1.809 0.816-1.809 1.809-1.809 1.809 0.809 1.809 1.809zM27.238 19.294h-17.632c-1.026 0-1.855-0.835-1.855-1.855v-9.595l21.341 2.94v6.649c0 1.033-0.835 1.861-1.855 1.861z"></path>
</symbol>
<symbol id="twitter" viewBox="0 0 32 32">
<title>twitter</title>
<path d="M32 6.079c-1.178 0.522-2.442 0.876-3.769 1.034 1.356-0.812 2.394-2.1 2.885-3.629-1.272 0.752-2.675 1.298-4.171 1.594-1.198-1.278-2.901-2.074-4.791-2.074-3.625 0-6.565 2.939-6.565 6.563 0 0.514 0.058 1.016 0.17 1.496-5.455-0.274-10.292-2.887-13.529-6.859-0.566 0.968-0.888 2.096-0.888 3.299 0 2.278 1.16 4.287 2.919 5.463-1.076-0.036-2.088-0.332-2.973-0.824v0.082c0 3.179 2.264 5.833 5.265 6.437-0.55 0.148-1.13 0.23-1.73 0.23-0.424 0-0.834-0.042-1.236-0.122 0.836 2.61 3.259 4.507 6.131 4.559-2.246 1.76-5.077 2.805-8.152 2.805-0.53 0-1.052-0.032-1.566-0.090 2.905 1.866 6.355 2.953 10.062 2.953 12.076 0 18.677-10.002 18.677-18.677l-0.022-0.85c1.29-0.92 2.405-2.076 3.283-3.391z"></path>
</symbol>
</defs>
</svg>
